<?xml version="1.0" encoding="UTF-8" standalone="no" ?>
<!DOCTYPE svg PUBLIC "-//W3C//DTD SVG 1.1//EN" "http://www.w3.org/Graphics/SVG/1.1/DTD/svg11.dtd">
<svg xmlns="http://www.w3.org/2000/svg" xmlns:xlink="http://www.w3.org/1999/xlink" version="1.1" width="285.22" height="285.22" xml:space="preserve">
<desc>Created with Fabric.js 1.6.0-rc.1</desc>
<defs></defs>
<g style="stroke: none; stroke-width: 1; stroke-dasharray: none; stroke-linecap: butt; stroke-linejoin: miter; stroke-miterlimit: 10; fill: none; fill-rule: nonzero; opacity: 1;" transform="translate(10 10) scale(0.89 0.89)" >
  <circle cx="148.5" cy="148.5" r="148.5" style="stroke: none; stroke-width: 1; stroke-dasharray: none; stroke-linecap: butt; stroke-linejoin: miter; stroke-miterlimit: 10; fill: #32373B; fill-rule: nonzero; opacity: 0;" transform="  matrix(1 0 0 1 0 0) "/>
  <path d="M 236.547 99.396 L 84.478 200.297 l 93.732 93.728 c 64.419 -13.081 113.686 -67.863 118.411 -134.94 L 236.547 99.396 z" style="stroke: none; stroke-width: 1; stroke-dasharray: none; stroke-linecap: butt; stroke-linejoin: miter; stroke-miterlimit: 10; fill: #1D2326; fill-rule: nonzero; opacity: 0;" transform=" matrix(1 0 0 1 0 0) " stroke-linecap="round" />
  <path d="M 247.5 130.453 c 0 -27.338 -22.162 -49.5 -49.5 -49.5 s -49.5 22.162 -49.5 49.5 c 0 -27.338 -22.162 -49.5 -49.5 -49.5 s -49.5 22.162 -49.5 49.5 c 0 66 99 117.047 99 117.047 S 247.5 196.109 247.5 130.453 z" style="stroke: none; stroke-width: 1; stroke-dasharray: none; stroke-linecap: butt; stroke-linejoin: miter; stroke-miterlimit: 10; fill: #D95459; fill-rule: nonzero; opacity: 0;" transform=" matrix(1 0 0 1 0 0) " stroke-linecap="round" />
  <polygon points="194.91,234.3 155.1,194.49 174.9,174.69 194.91,194.7 254.1,135.51 273.9,155.31 " style="stroke: none; stroke-width: 1; stroke-dasharray: none; stroke-linecap: butt; stroke-linejoin: miter; stroke-miterlimit: 10; fill: #ECF0F1; fill-rule: nonzero; opacity: 0;" transform="  matrix(1 0 0 1 0 0) "/>
</g>
<g style="stroke: none; stroke-width: 1; stroke-dasharray: none; stroke-linecap: butt; stroke-linejoin: miter; stroke-miterlimit: 10; fill: none; fill-rule: nonzero; opacity: 1;" transform="translate(43.960000000000036 24.98999999999998) scale(0.63 0.63)" >
  <path d="M 303.673 253.517 c -11.151 -37.754 -67.121 -33.566 -91.279 -44.408 c -24.157 -10.842 -20.386 -47.219 -23.449 -53.548 h -58.932 c -3.058 6.329 0.714 42.711 -23.449 53.548 c -24.157 10.842 -80.133 6.655 -91.279 44.408 c -6.149 20.824 -5.857 27.193 -7.554 50.26 c 0 0 76.8 15.187 150.014 15.187 s 153.488 -15.187 153.488 -15.187 C 309.53 280.704 309.822 274.342 303.673 253.517 z" style="stroke: none; stroke-width: 1; stroke-dasharray: none; stroke-linecap: butt; stroke-linejoin: miter; stroke-miterlimit: 10; fill: #EAE5DC; fill-rule: nonzero; opacity: 1;" transform=" matrix(1 0 0 1 0 0) " stroke-linecap="round" />
  <path d="M 303.673 253.517 c -11.151 -37.754 -67.121 -33.566 -91.279 -44.408 c -24.157 -10.842 -20.386 -47.219 -23.449 -53.548 h -31.206 c 0 0 -0.719 51.024 23.438 61.866 s 80.133 6.655 91.279 44.408 c 5.857 19.83 5.868 26.552 7.324 47.073 c 19.234 -2.816 31.442 -5.126 31.442 -5.126 C 309.53 280.704 309.822 274.342 303.673 253.517 z" style="stroke: none; stroke-width: 1; stroke-dasharray: none; stroke-linecap: butt; stroke-linejoin: miter; stroke-miterlimit: 10; fill: #E0DBD3; fill-rule: nonzero; opacity: 1;" transform=" matrix(1 0 0 1 0 0) " stroke-linecap="round" />
  <path d="M 253.987 218.467 l -22.544 -4.345 c 0 0 -4.794 43.374 -6.278 101.373 c 7.953 -0.748 15.637 -1.568 22.932 -2.422 C 249.592 258.188 253.987 218.467 253.987 218.467 z" style="stroke: none; stroke-width: 1; stroke-dasharray: none; stroke-linecap: butt; stroke-linejoin: miter; stroke-miterlimit: 10; fill: #4C4C4C; fill-rule: nonzero; opacity: 1;" transform=" matrix(1 0 0 1 0 0) " stroke-linecap="round" />
  <path d="M 64.954 218.467 c 0 0 4.407 39.845 5.896 94.859 c 7.284 0.86 14.968 1.681 22.932 2.422 c -1.473 -58.128 -6.284 -101.626 -6.284 -101.626 L 64.954 218.467 z" style="stroke: none; stroke-width: 1; stroke-dasharray: none; stroke-linecap: butt; stroke-linejoin: miter; stroke-miterlimit: 10; fill: #4C4C4C; fill-rule: nonzero; opacity: 1;" transform=" matrix(1 0 0 1 0 0) " stroke-linecap="round" />
  <path d="M 230.009 229.084 c 7.891 2.063 15.541 4.693 22.207 8.453 c 1.006 -12.112 1.776 -19.071 1.776 -19.071 l -22.544 -4.345 C 231.443 214.122 230.847 219.535 230.009 229.084 z" style="stroke: none; stroke-width: 1; stroke-dasharray: none; stroke-linecap: butt; stroke-linejoin: miter; stroke-miterlimit: 10; fill: #393C3D; fill-rule: nonzero; opacity: 1;" transform=" matrix(1 0 0 1 0 0) " stroke-linecap="round" />
  <path d="M 201.878 201.105 c -12.5 -14.951 -10.421 -40.356 -12.927 -45.549 h -58.938 c -2.512 5.193 -0.427 30.599 -12.927 45.549 c 7.655 9.611 23.764 16.232 42.396 16.232 S 194.223 210.716 201.878 201.105 z" style="stroke: none; stroke-width: 1; stroke-dasharray: none; stroke-linecap: butt; stroke-linejoin: miter; stroke-miterlimit: 10; fill: #DBB491; fill-rule: nonzero; opacity: 1;" transform=" matrix(1 0 0 1 0 0) " stroke-linecap="round" />
  <polygon points="209.16,207.41 176.11,236.12 171.17,205.75 " style="stroke: none; stroke-width: 1; stroke-dasharray: none; stroke-linecap: butt; stroke-linejoin: miter; stroke-miterlimit: 10; fill: #C6C5AF; fill-rule: nonzero; opacity: 1;" transform="  matrix(1 0 0 1 0 0) "/>
  <polygon points="109.23,207.74 142.82,236.12 146.8,205.52 " style="stroke: none; stroke-width: 1; stroke-dasharray: none; stroke-linecap: butt; stroke-linejoin: miter; stroke-miterlimit: 10; fill: #C6C5AF; fill-rule: nonzero; opacity: 1;" transform="  matrix(1 0 0 1 0 0) "/>
  <polygon points="172,205.52 146.8,205.52 144.88,211.7 173.96,211.87 " style="stroke: none; stroke-width: 1; stroke-dasharray: none; stroke-linecap: butt; stroke-linejoin: miter; stroke-miterlimit: 10; fill: #C6C5AF; fill-rule: nonzero; opacity: 1;" transform="  matrix(1 0 0 1 0 0) "/>
  <polygon points="146.8,205.52 144.88,211.7 145.99,212.42 " style="stroke: none; stroke-width: 1; stroke-dasharray: none; stroke-linecap: butt; stroke-linejoin: miter; stroke-miterlimit: 10; fill: #AAA88F; fill-rule: nonzero; opacity: 1;" transform="  matrix(1 0 0 1 0 0) "/>
  <polygon points="173.96,211.87 171.17,205.75 172.33,212.86 " style="stroke: none; stroke-width: 1; stroke-dasharray: none; stroke-linecap: butt; stroke-linejoin: miter; stroke-miterlimit: 10; fill: #AAA88F; fill-rule: nonzero; opacity: 1;" transform="  matrix(1 0 0 1 0 0) "/>
  <path d="M 173.432 318.739 l 0.579 -7.987 l -6.081 -80.51 h -16.024 l -7.099 80.515 l 0.585 8.066 c 4.12 0.084 8.24 0.141 12.354 0.141 C 162.95 318.964 168.188 318.879 173.432 318.739 z" style="stroke: none; stroke-width: 1; stroke-dasharray: none; stroke-linecap: butt; stroke-linejoin: miter; stroke-miterlimit: 10; fill: #4C4C4C; fill-rule: nonzero; opacity: 1;" transform=" matrix(1 0 0 1 0 0) " stroke-linecap="round" />
  <polygon points="151.97,230.6 167.93,230.24 168.26,234.73 " style="stroke: none; stroke-width: 1; stroke-dasharray: none; stroke-linecap: butt; stroke-linejoin: miter; stroke-miterlimit: 10; fill: #3A3A38; fill-rule: nonzero; opacity: 1;" transform="  matrix(1 0 0 1 0 0) "/>
  <polygon points="140.54,208.18 178.25,208.16 176.11,221.03 167.59,230.6 151.97,230.6 142.69,221.03 " style="stroke: none; stroke-width: 1; stroke-dasharray: none; stroke-linecap: butt; stroke-linejoin: miter; stroke-miterlimit: 10; fill: #4C4C4C; fill-rule: nonzero; opacity: 1;" transform="  matrix(1 0 0 1 0 0) "/>
  <path d="M 146.796 205.517 l -25.72 -13.984 c 0 0 -3.389 4.817 -11.843 16.21 l 31.723 22.853 l 2.704 -14.923 L 146.796 205.517 z" style="stroke: none; stroke-width: 1; stroke-dasharray: none; stroke-linecap: butt; stroke-linejoin: miter; stroke-miterlimit: 10; fill: #EAEAE1; fill-rule: nonzero; opacity: 1;" transform=" matrix(1 0 0 1 0 0) " stroke-linecap="round" />
  <path d="M 171.122 205.517 l 25.72 -13.984 c 0 0 3.861 4.48 12.315 15.873 l -32.195 23.191 l -2.704 -14.923 L 171.122 205.517 z" style="stroke: none; stroke-width: 1; stroke-dasharray: none; stroke-linecap: butt; stroke-linejoin: miter; stroke-miterlimit: 10; fill: #EAEAE1; fill-rule: nonzero; opacity: 1;" transform=" matrix(1 0 0 1 0 0) " stroke-linecap="round" />
  <path d="M 196.842 191.533 l -25.72 13.984 l 1.776 5.772 c 2.372 2.602 5.109 4.716 8.279 6.138 c 2.799 1.253 6.02 2.31 9.555 3.249 l 18.419 -13.265 C 200.703 196.013 196.842 191.533 196.842 191.533 z" style="stroke: none; stroke-width: 1; stroke-dasharray: none; stroke-linecap: butt; stroke-linejoin: miter; stroke-miterlimit: 10; fill: #E0DBD3; fill-rule: nonzero; opacity: 1;" transform=" matrix(1 0 0 1 0 0) " stroke-linecap="round" />
  <ellipse cx="228.52599999999998" cy="118.55900000000001" rx="21.386" ry="11.629" style="stroke: none; stroke-width: 1; stroke-dasharray: none; stroke-linecap: butt; stroke-linejoin: miter; stroke-miterlimit: 10; fill: #CCA483; fill-rule: nonzero; opacity: 1;" transform=" matrix(-0.177 0.9842 -0.9842 -0.177 385.6545 -85.3725) "/>
  <ellipse cx="90.259" cy="118.566" rx="11.629" ry="21.386" style="stroke: none; stroke-width: 1; stroke-dasharray: none; stroke-linecap: butt; stroke-linejoin: miter; stroke-miterlimit: 10; fill: #DBB491; fill-rule: nonzero; opacity: 1;" transform=" matrix(-0.9842 0.177 -0.177 -0.9842 200.0894 219.2784) "/>
  <path d="M 223.641 47.364 H 159.42 H 95.233 c 0 0 -35.989 146.614 64.187 160.806 C 259.636 193.978 223.641 47.364 223.641 47.364 z" style="stroke: none; stroke-width: 1; stroke-dasharray: none; stroke-linecap: butt; stroke-linejoin: miter; stroke-miterlimit: 10; fill: #DBB491; fill-rule: nonzero; opacity: 1;" transform=" matrix(1 0 0 1 0 0) " stroke-linecap="round" />
  <path d="M 159.42 208.17 c 100.216 -14.192 64.221 -160.806 64.221 -160.806 h -15.024 c 4.114 61.242 9.808 93.774 -13.815 129.24 C 176.085 204.708 159.42 208.17 159.42 208.17 z" style="stroke: none; stroke-width: 1; stroke-dasharray: none; stroke-linecap: butt; stroke-linejoin: miter; stroke-miterlimit: 10; fill: #CCA483; fill-rule: nonzero; opacity: 1;" transform=" matrix(1 0 0 1 0 0) " stroke-linecap="round" />
  <path d="M 192.666 55.233 L 99.369 78.941 c 0 0 8.335 17.042 48.112 22.724 c 53.053 7.577 78.031 -1.523 78.031 -1.523 L 192.666 55.233 z" style="stroke: none; stroke-width: 1; stroke-dasharray: none; stroke-linecap: butt; stroke-linejoin: miter; stroke-miterlimit: 10; fill: #CCA483; fill-rule: nonzero; opacity: 1;" transform=" matrix(1 0 0 1 0 0) " stroke-linecap="round" />
  <path d="M 233.893 90.3 l -7.273 49.366 h -5.227 c 1.557 -15.507 1.754 -31.037 0.275 -46.595 L 233.893 90.3 z" style="stroke: none; stroke-width: 1; stroke-dasharray: none; stroke-linecap: butt; stroke-linejoin: miter; stroke-miterlimit: 10; fill: #393C3D; fill-rule: nonzero; opacity: 1;" transform=" matrix(1 0 0 1 0 0) " stroke-linecap="round" />
  <path d="M 153.406 0.354 C 125.584 -2.316 87.937 9.97 89.949 42.75 c 0 0 -4.474 -1.894 -13.22 5.48 c -7.127 6.008 -8.577 22.106 1.489 40.749 c 4.339 8.032 11.196 20.583 14.04 50.726 h 6.087 c -2.49 -21.15 -3.946 -41.165 1.029 -60.77 c 0 0 20.026 20.521 78.194 20.712 s 72.197 -7.127 74.715 -38.771 C 253.993 39.361 236.012 8.29 153.406 0.354 z" style="stroke: none; stroke-width: 1; stroke-dasharray: none; stroke-linecap: butt; stroke-linejoin: miter; stroke-miterlimit: 10; fill: #515151; fill-rule: nonzero; opacity: 1;" transform=" matrix(1 0 0 1 0 0) " stroke-linecap="round" />
</g>
<g style="stroke: none; stroke-width: 1; stroke-dasharray: none; stroke-linecap: butt; stroke-linejoin: miter; stroke-miterlimit: 10; fill: none; fill-rule: nonzero; opacity: 1;" transform="translate(87.77999999999997 61.009999999999984) scale(0.22 0.22)" >
  <circle cx="256.003" cy="256.003" r="245.333" style="stroke: none; stroke-width: 1; stroke-dasharray: none; stroke-linecap: butt; stroke-linejoin: miter; stroke-miterlimit: 10; fill: #FFC64D; fill-rule: nonzero; opacity: 0;" transform="  matrix(1 0 0 1 0 0) "/>
  <path d="M 352.427 327.467 c -9.035 26.528 -25.515 48.523 -46.315 62.24 c -14.88 9.824 -31.957 15.413 -50.112 15.413 s -35.232 -5.589 -50.112 -15.413 c -20.8 -13.717 -37.28 -35.712 -46.315 -62.24 H 352.427 z" style="stroke: none; stroke-width: 1; stroke-dasharray: none; stroke-linecap: butt; stroke-linejoin: miter; stroke-miterlimit: 10; fill: #79302A; fill-rule: nonzero; opacity: 1;" transform=" matrix(1 0 0 1 0 0) " stroke-linecap="round" />
  <path d="M 215.578 161.655 c -8.179 -14.166 -26.293 -19.021 -40.46 -10.842 c -7.308 4.219 -12.129 11.084 -13.97 18.684 c -7.503 -2.206 -15.858 -1.462 -23.166 2.756 c -14.166 8.179 -19.021 26.293 -10.842 40.46 c 16.38 28.37 71.196 25.376 73.483 25.238 c 0.015 0.018 0.025 0.029 0.025 0.029 s 0.009 -0.013 0.021 -0.031 c 0.022 -0.001 0.037 -0.002 0.037 -0.002 s -0.004 -0.013 -0.012 -0.035 C 201.956 236.001 231.956 190.026 215.578 161.655 z" style="stroke: none; stroke-width: 1; stroke-dasharray: none; stroke-linecap: butt; stroke-linejoin: miter; stroke-miterlimit: 10; fill: #E74C3C; fill-rule: nonzero; opacity: 1;" transform=" matrix(1 0 0 1 0 0) " stroke-linecap="round" />
  <path d="M 384.86 212.715 c 8.179 -14.166 3.325 -32.282 -10.842 -40.46 c -7.308 -4.219 -15.663 -4.962 -23.166 -2.756 c -1.841 -7.6 -6.662 -14.465 -13.97 -18.684 c -14.166 -8.179 -32.282 -3.325 -40.46 10.842 c -16.38 28.37 13.621 74.345 14.884 76.257 c -0.007 0.022 -0.013 0.035 -0.013 0.035 s 0.015 0.001 0.037 0.002 c 0.013 0.019 0.02 0.031 0.02 0.031 s 0.01 -0.011 0.025 -0.029 C 313.664 238.091 368.48 241.085 384.86 212.715 z" style="stroke: none; stroke-width: 1; stroke-dasharray: none; stroke-linecap: butt; stroke-linejoin: miter; stroke-miterlimit: 10; fill: #E74C3C; fill-rule: nonzero; opacity: 1;" transform=" matrix(1 0 0 1 0 0) " stroke-linecap="round" />
  <path d="M 306.112 389.707 c -14.88 9.824 -31.957 15.413 -50.112 15.413 s -35.232 -5.589 -50.112 -15.413 c 8.256 -16.139 27.584 -27.467 50.112 -27.467 S 297.856 373.568 306.112 389.707 z" style="stroke: none; stroke-width: 1; stroke-dasharray: none; stroke-linecap: butt; stroke-linejoin: miter; stroke-miterlimit: 10; fill: #E74C3C; fill-rule: nonzero; opacity: 1;" transform=" matrix(1 0 0 1 0 0) " stroke-linecap="round" />
  <path d="M 437.02 74.98 C 388.668 26.628 324.38 0 256 0 S 123.333 26.628 74.98 74.98 S 0 187.62 0 256 s 26.628 132.667 74.98 181.02 S 187.62 512 256 512 s 132.668 -26.628 181.02 -74.98 S 512 324.38 512 256 S 485.372 123.333 437.02 74.98 z M 256 490.667 c -129.396 0 -234.667 -105.27 -234.667 -234.667 S 126.604 21.333 256 21.333 S 490.667 126.604 490.667 256 S 385.396 490.667 256 490.667 z" style="stroke: none; stroke-width: 1; stroke-dasharray: none; stroke-linecap: butt; stroke-linejoin: miter; stroke-miterlimit: 10; fill: #231F20; fill-rule: nonzero; opacity: 0;" transform=" matrix(1 0 0 1 0 0) " stroke-linecap="round" />
  <path d="M 352.427 316.8 H 159.573 c -3.441 0 -6.671 1.66 -8.673 4.458 c -2.003 2.798 -2.533 6.39 -1.423 9.648 c 9.737 28.589 27.685 52.634 50.534 67.702 c 17.022 11.238 36.383 17.179 55.988 17.179 c 19.606 0 38.966 -5.94 55.985 -17.175 c 22.853 -15.071 40.801 -39.116 50.539 -67.706 c 1.109 -3.258 0.579 -6.849 -1.423 -9.648 C 359.098 318.46 355.868 316.8 352.427 316.8 z M 221.385 386.291 c 8.151 -8.337 20.789 -13.385 34.615 -13.385 c 13.826 0 26.465 5.049 34.617 13.386 c -10.967 5.356 -22.755 8.161 -34.617 8.161 C 244.14 394.453 232.353 391.649 221.385 386.291 z M 308.678 374.507 c -12.063 -14.212 -31.543 -22.933 -52.678 -22.933 c -21.134 0 -40.614 8.72 -52.678 22.933 c -11.36 -9.505 -20.898 -21.958 -27.871 -36.373 h 161.098 C 329.577 352.548 320.038 365 308.678 374.507 z" style="stroke: none; stroke-width: 1; stroke-dasharray: none; stroke-linecap: butt; stroke-linejoin: miter; stroke-miterlimit: 10; fill: #231F20; fill-rule: nonzero; opacity: 0;" transform=" matrix(1 0 0 1 0 0) " stroke-linecap="round" />
  <path d="M 204.084 248.065 c 4.182 -1.466 5.807 -4.687 5.963 -4.97 c 5.166 -8.004 33.406 -54.491 14.767 -86.773 c -5.379 -9.318 -14.067 -15.985 -24.461 -18.77 c -10.395 -2.786 -21.25 -1.357 -30.571 4.025 c -6.693 3.866 -11.996 9.404 -15.487 16.055 c -7.514 -0.311 -14.955 1.52 -21.648 5.385 c -19.237 11.107 -25.852 35.793 -14.746 55.031 c 16.012 27.733 58.402 30.745 76.062 30.745 C 200.222 248.794 203.236 248.363 204.084 248.065 z M 136.378 207.381 c -5.225 -9.05 -2.112 -20.665 6.938 -25.889 c 2.921 -1.686 6.148 -2.545 9.422 -2.545 c 1.801 0 3.616 0.26 5.402 0.785 c 2.801 0.823 5.815 0.464 8.342 -0.996 c 2.527 -1.459 4.347 -3.89 5.034 -6.726 c 1.235 -5.097 4.409 -9.343 8.937 -11.957 c 4.383 -2.531 9.491 -3.205 14.381 -1.893 c 4.89 1.311 8.977 4.446 11.508 8.831 c 9.692 16.786 -3.311 46.029 -11.726 60.474 C 177.929 227.546 146.068 224.166 136.378 207.381 z" style="stroke: none; stroke-width: 1; stroke-dasharray: none; stroke-linecap: butt; stroke-linejoin: miter; stroke-miterlimit: 10; fill: #231F20; fill-rule: nonzero; opacity: 0;" transform=" matrix(1 0 0 1 0 0) " stroke-linecap="round" />
  <path d="M 379.351 163.017 c -6.693 -3.865 -14.119 -5.692 -21.648 -5.385 c -3.49 -6.653 -8.793 -12.19 -15.488 -16.055 c -9.318 -5.38 -20.177 -6.809 -30.569 -4.025 c -10.394 2.785 -19.082 9.451 -24.462 18.77 c -18.81 32.577 10.123 79.622 14.905 86.983 c 0.125 0.215 1.485 2.033 2.137 2.612 c 1.82 1.633 4.167 2.612 6.665 2.72 c 0.23 0.011 4.253 0.155 7.141 0.155 c 17.66 0 60.054 -3.013 76.065 -30.745 C 405.203 198.812 398.59 174.125 379.351 163.017 z M 375.622 207.381 c -9.691 16.783 -41.463 20.153 -58.236 20.082 c -8.416 -14.445 -21.418 -43.689 -11.726 -60.474 c 2.531 -4.384 6.619 -7.52 11.508 -8.83 c 4.889 -1.312 9.996 -0.637 14.38 1.892 c 4.528 2.614 7.702 6.861 8.937 11.956 c 0.687 2.836 2.506 5.267 5.034 6.727 c 2.527 1.46 5.542 1.818 8.341 0.996 c 5.03 -1.479 10.297 -0.855 14.825 1.76 C 377.736 186.718 380.847 198.332 375.622 207.381 z" style="stroke: none; stroke-width: 1; stroke-dasharray: none; stroke-linecap: butt; stroke-linejoin: miter; stroke-miterlimit: 10; fill: #231F20; fill-rule: nonzero; opacity: 0;" transform=" matrix(1 0 0 1 0 0) " stroke-linecap="round" />
  <path d="M 164.155 92.064 c 1.679 0 3.385 -0.398 4.973 -1.237 c 23.061 -12.181 47.962 -19.261 74.009 -21.041 c 5.877 -0.401 10.316 -5.491 9.914 -11.37 c -0.401 -5.877 -5.502 -10.315 -11.37 -9.914 c -29.041 1.985 -56.803 9.878 -82.517 23.461 c -5.21 2.752 -7.201 9.204 -4.45 14.414 C 156.625 89.998 160.325 92.064 164.155 92.064 z" style="stroke: none; stroke-width: 1; stroke-dasharray: none; stroke-linecap: butt; stroke-linejoin: miter; stroke-miterlimit: 10; fill: #231F20; fill-rule: nonzero; opacity: 0;" transform=" matrix(1 0 0 1 0 0) " stroke-linecap="round" />
  <path d="M 337.952 423.684 c -23.38 11.475 -48.481 17.809 -74.606 18.823 c -5.887 0.229 -10.473 5.186 -10.244 11.073 c 0.223 5.746 4.951 10.253 10.652 10.253 c 0.14 0 0.282 -0.002 0.422 -0.007 c 29.121 -1.133 57.105 -8.194 83.178 -20.991 c 5.289 -2.596 7.471 -8.987 4.875 -14.275 C 349.632 423.273 343.245 421.086 337.952 423.684 z" style="stroke: none; stroke-width: 1; stroke-dasharray: none; stroke-linecap: butt; stroke-linejoin: miter; stroke-miterlimit: 10; fill: #231F20; fill-rule: nonzero; opacity: 0;" transform=" matrix(1 0 0 1 0 0) " stroke-linecap="round" />
</g>
</svg>